<mxfile host="app.diagrams.net" agent="Mozilla/5.0 (X11; Linux x86_64) AppleWebKit/537.36 (KHTML, like Gecko) Chrome/131.0.0.0 Safari/537.36" version="25.0.3">
  <diagram name="Page-1" id="B_kmo3IJZDOH3_Cn6owL">
    <mxGraphModel dx="1137" dy="666" grid="1" gridSize="10" guides="1" tooltips="1" connect="1" arrows="1" fold="1" page="1" pageScale="1" pageWidth="850" pageHeight="1100" math="0" shadow="0">
      <root>
        <mxCell id="0" />
        <mxCell id="1" parent="0" />
        <mxCell id="HcXosPIVKOFR8L9jWV6Y-8" style="edgeStyle=orthogonalEdgeStyle;rounded=0;orthogonalLoop=1;jettySize=auto;html=1;entryX=0.5;entryY=0;entryDx=0;entryDy=0;" edge="1" parent="1" source="HcXosPIVKOFR8L9jWV6Y-1" target="HcXosPIVKOFR8L9jWV6Y-7">
          <mxGeometry relative="1" as="geometry" />
        </mxCell>
        <mxCell id="HcXosPIVKOFR8L9jWV6Y-14" style="edgeStyle=orthogonalEdgeStyle;rounded=0;orthogonalLoop=1;jettySize=auto;html=1;entryX=0;entryY=0.5;entryDx=0;entryDy=0;" edge="1" parent="1" source="HcXosPIVKOFR8L9jWV6Y-1" target="HcXosPIVKOFR8L9jWV6Y-13">
          <mxGeometry relative="1" as="geometry" />
        </mxCell>
        <mxCell id="HcXosPIVKOFR8L9jWV6Y-1" value="Fetch RefSeq, Genbank and SRA IDs linked to the assembly ID" style="rounded=1;whiteSpace=wrap;html=1;absoluteArcSize=1;arcSize=14;strokeWidth=2;fillColor=#dae8fc;strokeColor=#6c8ebf;" vertex="1" parent="1">
          <mxGeometry x="110" y="110" width="100" height="100" as="geometry" />
        </mxCell>
        <mxCell id="HcXosPIVKOFR8L9jWV6Y-5" style="edgeStyle=orthogonalEdgeStyle;rounded=0;orthogonalLoop=1;jettySize=auto;html=1;" edge="1" parent="1" source="HcXosPIVKOFR8L9jWV6Y-3" target="HcXosPIVKOFR8L9jWV6Y-1">
          <mxGeometry relative="1" as="geometry" />
        </mxCell>
        <mxCell id="HcXosPIVKOFR8L9jWV6Y-3" value="assemblies_ids_to&lt;div&gt;_download.tsv&lt;/div&gt;&lt;div&gt;NCBI&lt;/div&gt;" style="strokeWidth=2;html=1;shape=mxgraph.flowchart.document2;whiteSpace=wrap;size=0.25;fillColor=#e1d5e7;strokeColor=#9673a6;" vertex="1" parent="1">
          <mxGeometry x="50" y="10" width="100" height="60" as="geometry" />
        </mxCell>
        <mxCell id="HcXosPIVKOFR8L9jWV6Y-6" style="edgeStyle=orthogonalEdgeStyle;rounded=0;orthogonalLoop=1;jettySize=auto;html=1;entryX=0.5;entryY=0;entryDx=0;entryDy=0;" edge="1" parent="1" source="HcXosPIVKOFR8L9jWV6Y-4" target="HcXosPIVKOFR8L9jWV6Y-1">
          <mxGeometry relative="1" as="geometry" />
        </mxCell>
        <mxCell id="HcXosPIVKOFR8L9jWV6Y-4" value="assemblies_ids_to&lt;div&gt;_download.tsv&lt;/div&gt;&lt;div&gt;ENA661K&lt;/div&gt;" style="strokeWidth=2;html=1;shape=mxgraph.flowchart.document2;whiteSpace=wrap;size=0.25;fillColor=#e1d5e7;strokeColor=#9673a6;" vertex="1" parent="1">
          <mxGeometry x="170" y="10" width="100" height="60" as="geometry" />
        </mxCell>
        <mxCell id="HcXosPIVKOFR8L9jWV6Y-10" style="edgeStyle=orthogonalEdgeStyle;rounded=0;orthogonalLoop=1;jettySize=auto;html=1;entryX=0.5;entryY=0;entryDx=0;entryDy=0;" edge="1" parent="1" source="HcXosPIVKOFR8L9jWV6Y-7" target="HcXosPIVKOFR8L9jWV6Y-9">
          <mxGeometry relative="1" as="geometry" />
        </mxCell>
        <mxCell id="HcXosPIVKOFR8L9jWV6Y-7" value="id_matches.tsv" style="shape=document;whiteSpace=wrap;html=1;boundedLbl=1;fillColor=#d5e8d4;strokeColor=#82b366;" vertex="1" parent="1">
          <mxGeometry x="100" y="250" width="120" height="80" as="geometry" />
        </mxCell>
        <mxCell id="HcXosPIVKOFR8L9jWV6Y-12" style="edgeStyle=orthogonalEdgeStyle;rounded=0;orthogonalLoop=1;jettySize=auto;html=1;entryX=0.5;entryY=0;entryDx=0;entryDy=0;" edge="1" parent="1" source="HcXosPIVKOFR8L9jWV6Y-9" target="HcXosPIVKOFR8L9jWV6Y-11">
          <mxGeometry relative="1" as="geometry" />
        </mxCell>
        <mxCell id="HcXosPIVKOFR8L9jWV6Y-16" style="edgeStyle=orthogonalEdgeStyle;rounded=0;orthogonalLoop=1;jettySize=auto;html=1;entryX=0;entryY=0.5;entryDx=0;entryDy=0;" edge="1" parent="1" source="HcXosPIVKOFR8L9jWV6Y-9" target="HcXosPIVKOFR8L9jWV6Y-15">
          <mxGeometry relative="1" as="geometry" />
        </mxCell>
        <mxCell id="HcXosPIVKOFR8L9jWV6Y-9" value="Based on Biosample ID fetch all of Biosample metadata from NCBI" style="rounded=1;whiteSpace=wrap;html=1;absoluteArcSize=1;arcSize=14;strokeWidth=2;fillColor=#dae8fc;strokeColor=#6c8ebf;" vertex="1" parent="1">
          <mxGeometry x="110" y="370" width="100" height="100" as="geometry" />
        </mxCell>
        <mxCell id="HcXosPIVKOFR8L9jWV6Y-11" value="biosamples_ids.tsv" style="shape=document;whiteSpace=wrap;html=1;boundedLbl=1;fillColor=#d5e8d4;strokeColor=#82b366;" vertex="1" parent="1">
          <mxGeometry x="100" y="510" width="120" height="80" as="geometry" />
        </mxCell>
        <mxCell id="HcXosPIVKOFR8L9jWV6Y-13" value="all_ids_fetched.tsv" style="shape=document;whiteSpace=wrap;html=1;boundedLbl=1;fillColor=#d5e8d4;strokeColor=#82b366;" vertex="1" parent="1">
          <mxGeometry x="250" y="120" width="120" height="80" as="geometry" />
        </mxCell>
        <mxCell id="HcXosPIVKOFR8L9jWV6Y-15" value="biosamples_ids.tsv" style="shape=document;whiteSpace=wrap;html=1;boundedLbl=1;fillColor=#d5e8d4;strokeColor=#82b366;" vertex="1" parent="1">
          <mxGeometry x="250" y="380" width="120" height="80" as="geometry" />
        </mxCell>
        <mxCell id="HcXosPIVKOFR8L9jWV6Y-17" value="Processes" style="rounded=0;whiteSpace=wrap;html=1;fillColor=#dae8fc;strokeColor=#6c8ebf;" vertex="1" parent="1">
          <mxGeometry x="490" y="160" width="120" height="60" as="geometry" />
        </mxCell>
        <mxCell id="HcXosPIVKOFR8L9jWV6Y-19" value="Input files" style="rounded=0;whiteSpace=wrap;html=1;fillColor=#e1d5e7;strokeColor=#9673a6;" vertex="1" parent="1">
          <mxGeometry x="490" y="80" width="120" height="60" as="geometry" />
        </mxCell>
        <mxCell id="HcXosPIVKOFR8L9jWV6Y-20" value="Output files" style="rounded=0;whiteSpace=wrap;html=1;fillColor=#d5e8d4;strokeColor=#82b366;" vertex="1" parent="1">
          <mxGeometry x="490" y="240" width="120" height="60" as="geometry" />
        </mxCell>
        <mxCell id="HcXosPIVKOFR8L9jWV6Y-21" value="Color description:" style="text;html=1;align=center;verticalAlign=middle;resizable=0;points=[];autosize=1;strokeColor=none;fillColor=none;" vertex="1" parent="1">
          <mxGeometry x="380" y="35" width="110" height="30" as="geometry" />
        </mxCell>
      </root>
    </mxGraphModel>
  </diagram>
</mxfile>
